<svg width="281" height="92" viewBox="0 0 281 92" fill="none" xmlns="http://www.w3.org/2000/svg">
<path d="M28.0724 62.9233H61.9237V29.0721H28.0724V62.9233ZM32.7005 33.7001H57.2956V58.2951H32.7005V33.7001Z" fill="#060606"/>
<path d="M36.5373 21.9332H69.0668V54.4627H71.7109V19.2891H36.5373V21.9332Z" fill="#060606"/>
<path d="M45 13.4705H77.5295V46H80.1736V10.825H45V13.4705Z" fill="#060606"/>
<path d="M53.4627 2.36364V5.00773H85.9923V37.5373H88.6364V2.36364H53.4627Z" fill="#060606"/>
<path d="M20.9345 37.5373H18.2891V72.7109H53.4627V70.0668H20.9345V37.5373Z" fill="#060606"/>
<path d="M12.4718 46H9.82636V81.1736H45V78.5282H12.4718V46Z" fill="#060606"/>
<path d="M4.00773 54.4627H1.36364V89.6364H36.5373V86.9923H4.00773V54.4627Z" fill="#060606"/>
<path d="M51.0941 39.9018H38.9018V52.0941H51.0941V39.9018Z" fill="#060606"/>
<path d="M126.2 79.2C121.88 79.2 118.467 77.9867 115.96 75.56C113.48 73.1067 112.24 69.4133 112.24 64.48V25.96H123.92V37.6H133.96V46.96H123.92V62.36C123.92 64.7333 124.413 66.4 125.4 67.36C126.387 68.32 127.707 68.8 129.36 68.8C130.213 68.8 131.04 68.7067 131.84 68.52C132.667 68.3067 133.427 68.0133 134.12 67.64L135.76 76.84C134.56 77.5067 133.12 78.0667 131.44 78.52C129.787 78.9733 128.04 79.2 126.2 79.2ZM104.04 46.96V37.6H113.4V46.96H104.04ZM144.071 78V37.6H155.751V42.6C157.057 40.36 158.737 38.76 160.791 37.8C162.844 36.84 165.084 36.36 167.511 36.36C168.364 36.36 169.151 36.4133 169.871 36.52C170.591 36.6 171.297 36.7067 171.991 36.84L170.551 48.88C169.697 48.56 168.791 48.32 167.831 48.16C166.871 47.9733 165.924 47.88 164.991 47.88C162.297 47.88 160.084 48.6667 158.351 50.24C156.617 51.8133 155.751 54.0533 155.751 56.96V78H144.071ZM203.24 79.2C200.68 79.2 198.347 78.8133 196.24 78.04C194.133 77.2933 192.307 76.24 190.76 74.88C189.24 73.52 188.067 71.9467 187.24 70.16L188.84 67.56V78H178.68V20.4H190.32V46.8L187.72 44.12C189.56 41.64 191.747 39.7333 194.28 38.4C196.84 37.0667 199.76 36.4 203.04 36.4C207.04 36.4 210.56 37.3467 213.6 39.24C216.667 41.1333 219.067 43.7067 220.8 46.96C222.533 50.1867 223.4 53.8 223.4 57.8C223.4 60.9467 222.893 63.84 221.88 66.48C220.893 69.0933 219.493 71.3467 217.68 73.24C215.867 75.1333 213.733 76.6 211.28 77.64C208.853 78.68 206.173 79.2 203.24 79.2ZM201.08 69.08C203.16 69.08 205.013 68.6267 206.64 67.72C208.267 66.7867 209.547 65.48 210.48 63.8C211.413 62.12 211.88 60.12 211.88 57.8C211.88 55.48 211.413 53.48 210.48 51.8C209.573 50.12 208.293 48.8267 206.64 47.92C205.013 46.9867 203.16 46.52 201.08 46.52C199 46.52 197.147 46.9867 195.52 47.92C193.893 48.8267 192.613 50.12 191.68 51.8C190.773 53.48 190.32 55.48 190.32 57.8C190.32 60.12 190.787 62.12 191.72 63.8C192.653 65.48 193.933 66.7867 195.56 67.72C197.187 68.6267 199.027 69.08 201.08 69.08ZM250.685 79.2C246.285 79.2 242.418 78.3067 239.085 76.52C235.752 74.7333 233.152 72.24 231.285 69.04C229.418 65.84 228.485 62.0933 228.485 57.8C228.485 54.68 229.018 51.8133 230.085 49.2C231.178 46.5867 232.698 44.3333 234.645 42.44C236.618 40.52 238.925 39.04 241.565 38C244.232 36.9333 247.152 36.4 250.325 36.4C253.818 36.4 256.912 37.0133 259.605 38.24C262.325 39.4667 264.578 41.1867 266.365 43.4C268.152 45.5867 269.392 48.16 270.085 51.12C270.805 54.08 270.872 57.2933 270.285 60.76H239.325C239.325 62.6267 239.805 64.2533 240.765 65.64C241.752 67.0267 243.125 68.12 244.885 68.92C246.672 69.6933 248.752 70.08 251.125 70.08C253.472 70.08 255.712 69.76 257.845 69.12C259.978 68.48 261.992 67.5067 263.885 66.2L267.765 74.2C266.485 75.1867 264.885 76.0667 262.965 76.84C261.045 77.5867 259.005 78.16 256.845 78.56C254.712 78.9867 252.658 79.2 250.685 79.2ZM240.005 52.72H259.085C259.005 50.3467 258.165 48.4667 256.565 47.08C254.992 45.6933 252.818 45 250.045 45C247.272 45 244.965 45.6933 243.125 47.08C241.312 48.4667 240.272 50.3467 240.005 52.72Z" fill="#060606"/>
</svg>
